<svg xmlns="http://www.w3.org/2000/svg" height="41" width="98"><g fill="none" fill-rule="evenodd"><path d="M0 17.96l2.55-3.797c1.335 1.225 3.399 1.96 5.382 1.96 1.416 0 2.509-.694 2.509-1.674 0-2.98-9.51-1.918-9.51-8.286C.93 2.367 4.573 0 8.458 0c2.55 0 5.341.98 6.636 2l-2.468 3.837c-1.012-.735-2.347-1.347-3.764-1.347-1.456 0-2.67.571-2.67 1.592 0 2.571 9.51 1.55 9.51 8.408 0 3.796-3.683 6.122-7.81 6.122-2.712 0-5.585-.939-7.892-2.653zm16.558-7.633C16.558 4.612 21.05 0 26.998 0c5.95 0 10.441 4.612 10.441 10.327S32.948 20.612 27 20.612s-10.44-4.571-10.44-10.285zm5.261 0c0 2.98 2.104 5.387 5.18 5.387s5.18-2.408 5.18-5.387c0-2.98-2.105-5.429-5.18-5.429s-5.18 2.449-5.18 5.429zM39.51 28V.408h5.059V2c1.538-1.265 3.52-2 5.746-2 5.342 0 9.631 4.49 9.631 10.327 0 2.693-.93 5.142-2.468 6.938-1.74 2.041-4.532 3.347-7.446 3.347-1.983 0-3.683-.571-5.26-1.796V28zm5.261-20.653v5.918c1.012 1.47 2.752 2.45 4.735 2.45 2.954 0 5.18-2.286 5.18-5.388 0-2.858-1.983-5.429-5.059-5.429a6.02 6.02 0 0 0-4.856 2.449zm15.304 10.612l2.55-3.796c1.335 1.225 3.399 1.96 5.382 1.96 1.416 0 2.509-.694 2.509-1.674 0-2.98-9.51-1.918-9.51-8.286C61.006 2.367 64.648 0 68.533 0c2.55 0 5.341.98 6.636 2l-2.468 3.837c-1.012-.735-2.347-1.347-3.764-1.347-1.457 0-2.67.571-2.67 1.592 0 2.571 9.51 1.55 9.51 8.408 0 3.796-3.683 6.122-7.81 6.122-2.712 0-5.585-.939-7.892-2.653zM86.484 28H80.98l3.423-9.796L75.622.408h5.786l5.747 11.878L92.456.408H98z" fill="white"/><path d="M55.287 28.006c-2.94 5.94-9.064 10.026-16.142 10.026-3.427 0-6.63-.958-9.358-2.62" stroke="white" stroke-width="5"/></g></svg>